<?xml version="1.0" standalone="no"?><!DOCTYPE svg PUBLIC "-//W3C//DTD SVG 1.1//EN" "http://www.w3.org/Graphics/SVG/1.1/DTD/svg11.dtd"><svg t="1602746717245" class="icon" viewBox="0 0 1024 1024" version="1.1" xmlns="http://www.w3.org/2000/svg" p-id="2522" xmlns:xlink="http://www.w3.org/1999/xlink" width="200" height="200"><defs><style type="text/css"></style></defs><path d="M896 448l-121.6 0 179.2-268.8c12.8-12.8 6.4-32-6.4-44.8C928 128 908.8 128 902.4 147.2L697.6 448l-32 0 96-275.2c6.4-19.2-6.4-32-19.2-38.4C729.6 128 710.4 134.4 704 153.6L601.6 448 128 448l0 268.8C128 819.2 256 896 416 896l192 0c160 0 288-83.2 288-192L896 448zM832 704c0 70.4-102.4 128-224 128l-192 0C281.6 832 192 768 192 716.8L192 640l640 0L832 704zM832 544 832 576 192 576 192 569.6 192 512l524.8 0c0 0 0 0 0 0 0 0 0 0 0 0L832 512 832 544z" p-id="2523"></path></svg>